<?xml version="1.0" encoding="UTF-8"?>
<!DOCTYPE svg PUBLIC "-//W3C//DTD SVG 1.0//EN" "http://www.w3.org/TR/2001/REC-SVG-20010904/DTD/svg10.dtd">
<!-- Creator: CorelDRAW -->
<svg xmlns="http://www.w3.org/2000/svg" xml:space="preserve" width="2119px" height="906px" version="1.0" style="shape-rendering:geometricPrecision; text-rendering:geometricPrecision; image-rendering:optimizeQuality; fill-rule:evenodd; clip-rule:evenodd"
viewBox="0 0 2118.87 905.62"
 xmlns:xlink="http://www.w3.org/1999/xlink"
 xmlns:xodm="http://www.corel.com/coreldraw/odm/2003">
 <defs>
  <style type="text/css">
   <![CDATA[
    .fil0 {fill:#FEFEFE}
    .fil2 {fill:#171717}
    .fil1 {fill:#FEFEFE;fill-rule:nonzero}
   ]]>
  </style>
   <mask id="id0">
  <linearGradient id="id1" gradientUnits="userSpaceOnUse" x1="1905.56" y1="865.37" x2="1905.57" y2="584.3">
   <stop offset="0" style="stop-opacity:1; stop-color:white"/>
   <stop offset="1" style="stop-opacity:0; stop-color:white"/>
  </linearGradient>
    <rect style="fill:url(#id1)" x="1708.29" y="452.49" width="351.39" height="454.31"/>
   </mask>
 </defs>
 <g id="Layer_x0020_1">
  <metadata id="CorelCorpID_0Corel-Layer"/>
  <polygon class="fil0" style="mask:url(#id0)" points="1790.41,453.67 1977.57,453.67 1977.57,731.1 2058.5,731.1 1883.99,905.62 1709.47,731.1 1790.41,731.1 "/>
  <path class="fil1" d="M610.71 671.09l-157.55 0 -41.01 -119.38 -216.97 0 -41.15 119.38 -154.03 0 217.78 -590.4 175.15 0 217.78 590.4zm-235.11 -227.39l-72.01 -209.93 -72 209.93 144.01 0zm626.03 -81.21c-38.66,-40.22 -134.76,-42.79 -179.48,10.96l0 297.64 -142.93 0 0 -445.03 142.93 0 0 65.37c56.91,-48.81 105,-73.9 179.48,-65.37l0 136.43zm605.32 308.6l-146.86 0 -250.26 -405.24 0 405.24 -139.69 0 0 -590.4 182.05 0 215.08 338.24 0 -338.24 139.68 0 0 590.4zm370.62 -116.26l0 -93.26c-19.22,1.62 -39.92,3.86 -62.27,6.63 -22.32,2.77 -39.22,6.04 -50.75,9.74 -14.19,4.56 -25.08,11.08 -32.49,19.63 -7.47,8.63 -11.23,20.03 -11.23,34.11 0,9.34 0.73,16.81 2.3,22.74 1.54,5.84 5.64,11.27 11.91,16.65 6.04,5.18 13.26,9.2 21.66,11.77 8.39,2.57 21.52,3.79 39.38,3.79 14.22,0 28.56,-3 43.05,-8.79 14.6,-5.85 27.47,-13.54 38.44,-23.01zm0 69.02c-7.58,5.83 -17.14,12.94 -28.43,21.12 -11.31,8.2 -22.02,14.7 -32.08,19.36 -13.9,6.44 -28.42,11.1 -43.44,14.21 -15.03,3.11 -31.54,4.74 -49.54,4.74 -42.1,0 -77.39,-13.17 -105.85,-39.39 -28.53,-26.29 -42.77,-59.69 -42.77,-100.57 0,-32.62 7.34,-59.26 21.79,-79.86 14.51,-20.68 35.07,-37.06 61.59,-48.99 26.4,-11.89 59.15,-20.44 98.13,-25.45 38.98,-5.01 79.45,-8.66 121.41,-11.1l0 -2.44c0,-24.49 -10.02,-41.55 -30.05,-50.89 -20.03,-9.34 -49.54,-14.08 -88.52,-14.08 -23.42,0 -48.47,4.16 -74.99,12.46 -26.67,8.35 -45.75,14.75 -57.39,19.22l-12.99 0 0 -107.74c15.03,-3.93 39.53,-8.67 73.36,-14.08 33.84,-5.41 67.81,-8.12 101.79,-8.12 80.94,0 139.39,12.49 175.28,37.49 35.98,25.07 54,64.29 54,117.89l0 303.46 -141.3 0 0 -47.24z"/>
  <path class="fil2" d="M145.04 52.61c-15.03,15.47 -40.07,62.59 -50.17,83.16 -7.63,15.53 -28.47,58.93 -28.77,71.84 -0.11,4.78 1.95,7.83 4.98,12.55 12.04,18.8 24.01,32.82 36.35,50.32 4.88,6.92 13.31,19.15 19.16,24.63 6.62,6.21 15.78,3.33 24.51,1.15 4.08,-1.02 9.1,-3.13 13.24,-4.63 4.19,-1.51 9.1,-3.7 13.41,-5.73 33.53,-15.8 82.2,-48.24 110.78,-73.26 29.41,-25.74 69.27,-62.17 90.83,-93.56 5.37,-7.82 10.83,-16.28 13.77,-23.8 3.75,-9.54 4.05,-14.74 -4.58,-24.49 -6.84,-7.73 -13.87,-15.63 -20.84,-23.21 -9.71,-10.58 -32.18,-36.81 -42.22,-44.66 -3.91,-3.05 -8.02,-3.07 -11.72,-2.83 -27.2,1.76 -88.87,18.11 -115.84,27.58 -14.68,5.15 -41.83,13.54 -52.89,24.94z"/>
  <path class="fil0" d="M115.81 282.21c3.7,5 7.62,9.93 10.78,12.9 3.19,2.99 6.96,3.87 10.99,3.74 -0.23,-3.12 -0.15,-6.27 0.24,-9.39 1.54,-12.42 7.89,-24.5 18.66,-33.29 10.78,-8.79 23.89,-12.58 36.37,-11.59 11.73,0.92 22.92,6.11 31.05,15.34 7.76,-4.92 15.56,-10.1 23.12,-15.36 -2.17,-6.59 -2.81,-13.59 -1.95,-20.47 1.54,-12.42 7.89,-24.5 18.66,-33.29 10.78,-8.79 23.89,-12.58 36.37,-11.59 6.72,0.53 13.26,2.45 19.15,5.74 6.96,-6.51 13.98,-13.26 20.78,-20.12 -7.3,-9.77 -10.07,-21.68 -8.63,-33.27 1.54,-12.42 7.89,-24.5 18.66,-33.29 10.78,-8.79 23.89,-12.58 36.37,-11.59 3.01,0.23 5.99,0.75 8.89,1.55 1.05,-5.68 -0.51,-10.36 -6.77,-17.44 -2.09,-2.37 -4.21,-4.76 -6.33,-7.14 -16.29,0.06 -32.85,5.59 -46.65,16.85 -15.49,12.63 -24.62,30.12 -26.86,48.19 -1.21,9.74 -0.43,19.65 2.42,29.06 -3.05,-0.65 -6.16,-1.1 -9.29,-1.35 -18.15,-1.43 -37.12,4 -52.6,16.63 -15.49,12.63 -24.62,30.12 -26.86,48.19 -0.35,2.78 -0.53,5.58 -0.55,8.37 -8.45,-4.45 -17.73,-7.07 -27.24,-7.82 -18.15,-1.43 -37.12,4 -52.6,16.63 -14.23,11.6 -23.1,27.32 -26.18,43.81z"/>
  <path class="fil0" d="M226.6 121.86c-11.11,15.27 -16.95,25.14 -32.66,29.69 -4.92,1.42 -12.07,3.26 -18.48,0.91 -7.77,-2.85 -13.18,-9.16 -14.36,-15.2 -3.36,-17.19 20.43,-11.88 29.61,-11.9l35.89 -3.5zm34.02 -72.17c-2.69,9.91 -3.3,16.91 -13.01,26.28 -20.67,19.94 -43.49,8.4 -73.53,11 -41.94,3.65 -60.03,49.83 -30.7,80.99 29.76,31.62 70.63,14.81 95.89,-13.99 25.02,-28.54 38.84,-82.77 21.35,-104.28z"/>
 </g>
</svg>
